<mxfile host="app.diagrams.net" modified="2021-09-04T12:33:13.451Z" agent="5.0 (Windows NT 10.0; Win64; x64) AppleWebKit/537.36 (KHTML, like Gecko) Chrome/95.0.4628.3 Safari/537.36" etag="iKiUkqMcXh7EqPgYZoCF" version="15.0.6" type="github">
  <diagram id="zNYDLqkDbU4kf4VKf8JR" name="Page-1">
    <mxGraphModel dx="4807" dy="2754" grid="1" gridSize="10" guides="1" tooltips="1" connect="1" arrows="1" fold="1" page="1" pageScale="1" pageWidth="850" pageHeight="1100" math="0" shadow="0">
      <root>
        <mxCell id="0" />
        <mxCell id="1" parent="0" />
        <mxCell id="mJbxCkgHBfYPzWmktXoz-30" value="" style="endArrow=classic;html=1;strokeColor=#000000;strokeWidth=3;entryX=1;entryY=0;entryDx=0;entryDy=0;exitX=0;exitY=1;exitDx=0;exitDy=0;fontStyle=0" edge="1" parent="1" source="mJbxCkgHBfYPzWmktXoz-2" target="mJbxCkgHBfYPzWmktXoz-22">
          <mxGeometry width="50" height="50" relative="1" as="geometry">
            <mxPoint x="-1200" y="330" as="sourcePoint" />
            <mxPoint x="-1260" y="350" as="targetPoint" />
          </mxGeometry>
        </mxCell>
        <mxCell id="mJbxCkgHBfYPzWmktXoz-211" value="" style="edgeStyle=orthogonalEdgeStyle;rounded=0;sketch=0;jumpStyle=none;orthogonalLoop=1;jettySize=auto;html=1;fontSize=25;strokeColor=#000000;strokeWidth=3;fontStyle=0" edge="1" parent="1" source="mJbxCkgHBfYPzWmktXoz-106" target="mJbxCkgHBfYPzWmktXoz-210">
          <mxGeometry relative="1" as="geometry" />
        </mxCell>
        <mxCell id="mJbxCkgHBfYPzWmktXoz-213" value="" style="edgeStyle=orthogonalEdgeStyle;rounded=0;sketch=0;jumpStyle=none;orthogonalLoop=1;jettySize=auto;html=1;fontSize=25;strokeColor=#000000;strokeWidth=3;fontStyle=0" edge="1" parent="1" source="mJbxCkgHBfYPzWmktXoz-107" target="mJbxCkgHBfYPzWmktXoz-212">
          <mxGeometry relative="1" as="geometry" />
        </mxCell>
        <mxCell id="mJbxCkgHBfYPzWmktXoz-108" value="" style="endArrow=classic;html=1;strokeColor=#000000;strokeWidth=3;entryX=0.5;entryY=0;entryDx=0;entryDy=0;exitX=0;exitY=1;exitDx=0;exitDy=0;fontStyle=0" edge="1" parent="1" source="mJbxCkgHBfYPzWmktXoz-22" target="mJbxCkgHBfYPzWmktXoz-106">
          <mxGeometry width="50" height="50" relative="1" as="geometry">
            <mxPoint x="-1178.2842712474617" y="328.2842712474612" as="sourcePoint" />
            <mxPoint x="-1431.7157287525524" y="541.715728752552" as="targetPoint" />
          </mxGeometry>
        </mxCell>
        <mxCell id="mJbxCkgHBfYPzWmktXoz-109" value="" style="endArrow=classic;html=1;strokeColor=#000000;strokeWidth=3;entryX=0.5;entryY=0;entryDx=0;entryDy=0;exitX=1;exitY=1;exitDx=0;exitDy=0;fontStyle=0" edge="1" parent="1" source="mJbxCkgHBfYPzWmktXoz-22">
          <mxGeometry width="50" height="50" relative="1" as="geometry">
            <mxPoint x="-1338.2842712474476" y="588.2842712474471" as="sourcePoint" />
            <mxPoint x="-1390" y="710" as="targetPoint" />
          </mxGeometry>
        </mxCell>
        <mxCell id="mJbxCkgHBfYPzWmktXoz-215" value="" style="edgeStyle=orthogonalEdgeStyle;rounded=0;sketch=0;jumpStyle=none;orthogonalLoop=1;jettySize=auto;html=1;fontSize=25;strokeColor=#000000;strokeWidth=3;fontStyle=0" edge="1" parent="1" source="mJbxCkgHBfYPzWmktXoz-112" target="mJbxCkgHBfYPzWmktXoz-214">
          <mxGeometry relative="1" as="geometry" />
        </mxCell>
        <mxCell id="mJbxCkgHBfYPzWmktXoz-217" value="" style="edgeStyle=orthogonalEdgeStyle;rounded=0;sketch=0;jumpStyle=none;orthogonalLoop=1;jettySize=auto;html=1;fontSize=25;strokeColor=#000000;strokeWidth=3;fontStyle=0" edge="1" parent="1" source="mJbxCkgHBfYPzWmktXoz-113" target="mJbxCkgHBfYPzWmktXoz-216">
          <mxGeometry relative="1" as="geometry" />
        </mxCell>
        <mxCell id="mJbxCkgHBfYPzWmktXoz-114" value="" style="endArrow=classic;html=1;strokeColor=#000000;strokeWidth=3;entryX=0.5;entryY=0;entryDx=0;entryDy=0;exitX=0;exitY=1;exitDx=0;exitDy=0;fontStyle=0" edge="1" parent="1" source="mJbxCkgHBfYPzWmktXoz-111" target="mJbxCkgHBfYPzWmktXoz-112">
          <mxGeometry width="50" height="50" relative="1" as="geometry">
            <mxPoint x="-908.2842712474617" y="328.2842712474612" as="sourcePoint" />
            <mxPoint x="-1161.7157287525524" y="541.715728752552" as="targetPoint" />
          </mxGeometry>
        </mxCell>
        <mxCell id="mJbxCkgHBfYPzWmktXoz-115" value="" style="endArrow=classic;html=1;strokeColor=#000000;strokeWidth=3;entryX=0.5;entryY=0;entryDx=0;entryDy=0;exitX=1;exitY=1;exitDx=0;exitDy=0;fontStyle=0" edge="1" parent="1" source="mJbxCkgHBfYPzWmktXoz-111">
          <mxGeometry width="50" height="50" relative="1" as="geometry">
            <mxPoint x="-1068.2842712474476" y="588.2842712474471" as="sourcePoint" />
            <mxPoint x="-1120" y="710" as="targetPoint" />
          </mxGeometry>
        </mxCell>
        <mxCell id="mJbxCkgHBfYPzWmktXoz-219" value="" style="edgeStyle=orthogonalEdgeStyle;rounded=0;sketch=0;jumpStyle=none;orthogonalLoop=1;jettySize=auto;html=1;fontSize=25;strokeColor=#000000;strokeWidth=3;fontStyle=0" edge="1" parent="1" source="mJbxCkgHBfYPzWmktXoz-117" target="mJbxCkgHBfYPzWmktXoz-218">
          <mxGeometry relative="1" as="geometry" />
        </mxCell>
        <mxCell id="mJbxCkgHBfYPzWmktXoz-221" value="" style="edgeStyle=orthogonalEdgeStyle;rounded=0;sketch=0;jumpStyle=none;orthogonalLoop=1;jettySize=auto;html=1;fontSize=25;strokeColor=#000000;strokeWidth=3;fontStyle=0" edge="1" parent="1" source="mJbxCkgHBfYPzWmktXoz-118" target="mJbxCkgHBfYPzWmktXoz-220">
          <mxGeometry relative="1" as="geometry" />
        </mxCell>
        <mxCell id="mJbxCkgHBfYPzWmktXoz-119" value="" style="endArrow=classic;html=1;strokeColor=#000000;strokeWidth=3;entryX=0.5;entryY=0;entryDx=0;entryDy=0;exitX=0;exitY=1;exitDx=0;exitDy=0;fontStyle=0" edge="1" parent="1" source="mJbxCkgHBfYPzWmktXoz-116" target="mJbxCkgHBfYPzWmktXoz-117">
          <mxGeometry width="50" height="50" relative="1" as="geometry">
            <mxPoint x="-628.2842712474617" y="328.2842712474612" as="sourcePoint" />
            <mxPoint x="-881.7157287525524" y="541.715728752552" as="targetPoint" />
          </mxGeometry>
        </mxCell>
        <mxCell id="mJbxCkgHBfYPzWmktXoz-120" value="" style="endArrow=classic;html=1;strokeColor=#000000;strokeWidth=3;entryX=0.5;entryY=0;entryDx=0;entryDy=0;exitX=1;exitY=1;exitDx=0;exitDy=0;fontStyle=0" edge="1" parent="1" source="mJbxCkgHBfYPzWmktXoz-116">
          <mxGeometry width="50" height="50" relative="1" as="geometry">
            <mxPoint x="-788.2842712474476" y="588.2842712474471" as="sourcePoint" />
            <mxPoint x="-840" y="710" as="targetPoint" />
          </mxGeometry>
        </mxCell>
        <mxCell id="mJbxCkgHBfYPzWmktXoz-121" value="" style="endArrow=classic;html=1;strokeColor=#000000;strokeWidth=3;entryX=0.5;entryY=0;entryDx=0;entryDy=0;fontStyle=0" edge="1" parent="1" target="mJbxCkgHBfYPzWmktXoz-111">
          <mxGeometry width="50" height="50" relative="1" as="geometry">
            <mxPoint x="-1200" y="330" as="sourcePoint" />
            <mxPoint x="-1409.9957287525524" y="543.435728752552" as="targetPoint" />
          </mxGeometry>
        </mxCell>
        <mxCell id="mJbxCkgHBfYPzWmktXoz-122" value="" style="endArrow=classic;html=1;strokeColor=#000000;strokeWidth=3;entryX=0.5;entryY=0;entryDx=0;entryDy=0;exitX=1;exitY=1;exitDx=0;exitDy=0;fontStyle=0" edge="1" parent="1" source="mJbxCkgHBfYPzWmktXoz-2">
          <mxGeometry width="50" height="50" relative="1" as="geometry">
            <mxPoint x="-921.4300000000001" y="330" as="sourcePoint" />
            <mxPoint x="-921.4300000000001" y="520" as="targetPoint" />
          </mxGeometry>
        </mxCell>
        <mxCell id="mJbxCkgHBfYPzWmktXoz-206" value="" style="endArrow=classic;html=1;fontSize=25;strokeColor=#000000;strokeWidth=3;exitX=0;exitY=0.5;exitDx=0;exitDy=0;entryX=0.5;entryY=0;entryDx=0;entryDy=0;fontStyle=0" edge="1" parent="1" source="mJbxCkgHBfYPzWmktXoz-1" target="mJbxCkgHBfYPzWmktXoz-2">
          <mxGeometry width="50" height="50" relative="1" as="geometry">
            <mxPoint x="-310" y="70" as="sourcePoint" />
            <mxPoint x="-260" y="20" as="targetPoint" />
          </mxGeometry>
        </mxCell>
        <mxCell id="mJbxCkgHBfYPzWmktXoz-207" value="" style="endArrow=classic;html=1;fontSize=25;strokeColor=#000000;strokeWidth=3;exitX=0;exitY=1;exitDx=0;exitDy=0;entryX=0.5;entryY=0;entryDx=0;entryDy=0;fontStyle=0" edge="1" parent="1" source="mJbxCkgHBfYPzWmktXoz-1" target="mJbxCkgHBfYPzWmktXoz-143">
          <mxGeometry width="50" height="50" relative="1" as="geometry">
            <mxPoint x="330" y="30" as="sourcePoint" />
            <mxPoint x="-1190" y="280" as="targetPoint" />
          </mxGeometry>
        </mxCell>
        <mxCell id="mJbxCkgHBfYPzWmktXoz-208" value="" style="endArrow=classic;html=1;fontSize=25;strokeColor=#000000;strokeWidth=3;exitX=1;exitY=1;exitDx=0;exitDy=0;entryX=0.5;entryY=0;entryDx=0;entryDy=0;fontStyle=0" edge="1" parent="1" source="mJbxCkgHBfYPzWmktXoz-1" target="mJbxCkgHBfYPzWmktXoz-164">
          <mxGeometry width="50" height="50" relative="1" as="geometry">
            <mxPoint x="410" y="40" as="sourcePoint" />
            <mxPoint x="-1110" y="290" as="targetPoint" />
          </mxGeometry>
        </mxCell>
        <mxCell id="mJbxCkgHBfYPzWmktXoz-209" value="" style="endArrow=classic;html=1;fontSize=25;strokeColor=#000000;strokeWidth=3;exitX=1;exitY=0.5;exitDx=0;exitDy=0;entryX=0.5;entryY=0;entryDx=0;entryDy=0;fontStyle=0" edge="1" parent="1" source="mJbxCkgHBfYPzWmktXoz-1" target="mJbxCkgHBfYPzWmktXoz-184">
          <mxGeometry width="50" height="50" relative="1" as="geometry">
            <mxPoint x="520" y="40" as="sourcePoint" />
            <mxPoint x="1360" y="140" as="targetPoint" />
          </mxGeometry>
        </mxCell>
        <mxCell id="mJbxCkgHBfYPzWmktXoz-223" value="" style="edgeStyle=orthogonalEdgeStyle;rounded=0;sketch=0;jumpStyle=none;orthogonalLoop=1;jettySize=auto;html=1;fontSize=25;strokeColor=#000000;strokeWidth=3;fontStyle=0" edge="1" parent="1" source="mJbxCkgHBfYPzWmktXoz-146" target="mJbxCkgHBfYPzWmktXoz-222">
          <mxGeometry relative="1" as="geometry" />
        </mxCell>
        <mxCell id="mJbxCkgHBfYPzWmktXoz-225" value="" style="edgeStyle=orthogonalEdgeStyle;rounded=0;sketch=0;jumpStyle=none;orthogonalLoop=1;jettySize=auto;html=1;fontSize=25;strokeColor=#000000;strokeWidth=3;fontStyle=0" edge="1" parent="1" source="mJbxCkgHBfYPzWmktXoz-147" target="mJbxCkgHBfYPzWmktXoz-224">
          <mxGeometry relative="1" as="geometry" />
        </mxCell>
        <mxCell id="mJbxCkgHBfYPzWmktXoz-227" value="" style="edgeStyle=orthogonalEdgeStyle;rounded=0;sketch=0;jumpStyle=none;orthogonalLoop=1;jettySize=auto;html=1;fontSize=25;strokeColor=#000000;strokeWidth=3;fontStyle=0" edge="1" parent="1" source="mJbxCkgHBfYPzWmktXoz-151" target="mJbxCkgHBfYPzWmktXoz-226">
          <mxGeometry relative="1" as="geometry" />
        </mxCell>
        <mxCell id="mJbxCkgHBfYPzWmktXoz-229" value="" style="edgeStyle=orthogonalEdgeStyle;rounded=0;sketch=0;jumpStyle=none;orthogonalLoop=1;jettySize=auto;html=1;fontSize=25;strokeColor=#000000;strokeWidth=3;fontStyle=0" edge="1" parent="1" source="mJbxCkgHBfYPzWmktXoz-152" target="mJbxCkgHBfYPzWmktXoz-228">
          <mxGeometry relative="1" as="geometry" />
        </mxCell>
        <mxCell id="mJbxCkgHBfYPzWmktXoz-231" value="" style="edgeStyle=orthogonalEdgeStyle;rounded=0;sketch=0;jumpStyle=none;orthogonalLoop=1;jettySize=auto;html=1;fontSize=25;strokeColor=#000000;strokeWidth=3;fontStyle=0" edge="1" parent="1" source="mJbxCkgHBfYPzWmktXoz-156" target="mJbxCkgHBfYPzWmktXoz-230">
          <mxGeometry relative="1" as="geometry" />
        </mxCell>
        <mxCell id="mJbxCkgHBfYPzWmktXoz-233" value="" style="edgeStyle=orthogonalEdgeStyle;rounded=0;sketch=0;jumpStyle=none;orthogonalLoop=1;jettySize=auto;html=1;fontSize=25;strokeColor=#000000;strokeWidth=3;fontStyle=0" edge="1" parent="1" source="mJbxCkgHBfYPzWmktXoz-157" target="mJbxCkgHBfYPzWmktXoz-232">
          <mxGeometry relative="1" as="geometry" />
        </mxCell>
        <mxCell id="mJbxCkgHBfYPzWmktXoz-235" value="" style="edgeStyle=orthogonalEdgeStyle;rounded=0;sketch=0;jumpStyle=none;orthogonalLoop=1;jettySize=auto;html=1;fontSize=25;strokeColor=#000000;strokeWidth=3;fontStyle=0" edge="1" parent="1" source="mJbxCkgHBfYPzWmktXoz-167" target="mJbxCkgHBfYPzWmktXoz-234">
          <mxGeometry relative="1" as="geometry" />
        </mxCell>
        <mxCell id="mJbxCkgHBfYPzWmktXoz-237" value="" style="edgeStyle=orthogonalEdgeStyle;rounded=0;sketch=0;jumpStyle=none;orthogonalLoop=1;jettySize=auto;html=1;fontSize=25;strokeColor=#000000;strokeWidth=3;fontStyle=0" edge="1" parent="1" source="mJbxCkgHBfYPzWmktXoz-168" target="mJbxCkgHBfYPzWmktXoz-236">
          <mxGeometry relative="1" as="geometry" />
        </mxCell>
        <mxCell id="mJbxCkgHBfYPzWmktXoz-239" value="" style="edgeStyle=orthogonalEdgeStyle;rounded=0;sketch=0;jumpStyle=none;orthogonalLoop=1;jettySize=auto;html=1;fontSize=25;strokeColor=#000000;strokeWidth=3;fontStyle=0" edge="1" parent="1" source="mJbxCkgHBfYPzWmktXoz-172" target="mJbxCkgHBfYPzWmktXoz-238">
          <mxGeometry relative="1" as="geometry" />
        </mxCell>
        <mxCell id="mJbxCkgHBfYPzWmktXoz-241" value="" style="edgeStyle=orthogonalEdgeStyle;rounded=0;sketch=0;jumpStyle=none;orthogonalLoop=1;jettySize=auto;html=1;fontSize=25;strokeColor=#000000;strokeWidth=3;fontStyle=0" edge="1" parent="1" source="mJbxCkgHBfYPzWmktXoz-173" target="mJbxCkgHBfYPzWmktXoz-240">
          <mxGeometry relative="1" as="geometry" />
        </mxCell>
        <mxCell id="mJbxCkgHBfYPzWmktXoz-243" value="" style="edgeStyle=orthogonalEdgeStyle;rounded=0;sketch=0;jumpStyle=none;orthogonalLoop=1;jettySize=auto;html=1;fontSize=25;strokeColor=#000000;strokeWidth=3;fontStyle=0" edge="1" parent="1" source="mJbxCkgHBfYPzWmktXoz-177" target="mJbxCkgHBfYPzWmktXoz-242">
          <mxGeometry relative="1" as="geometry" />
        </mxCell>
        <mxCell id="mJbxCkgHBfYPzWmktXoz-245" value="" style="edgeStyle=orthogonalEdgeStyle;rounded=0;sketch=0;jumpStyle=none;orthogonalLoop=1;jettySize=auto;html=1;fontSize=25;strokeColor=#000000;strokeWidth=3;fontStyle=0" edge="1" parent="1" source="mJbxCkgHBfYPzWmktXoz-178" target="mJbxCkgHBfYPzWmktXoz-244">
          <mxGeometry relative="1" as="geometry" />
        </mxCell>
        <mxCell id="mJbxCkgHBfYPzWmktXoz-247" value="" style="edgeStyle=orthogonalEdgeStyle;rounded=0;sketch=0;jumpStyle=none;orthogonalLoop=1;jettySize=auto;html=1;fontSize=25;strokeColor=#000000;strokeWidth=3;fontStyle=0" edge="1" parent="1" source="mJbxCkgHBfYPzWmktXoz-187" target="mJbxCkgHBfYPzWmktXoz-246">
          <mxGeometry relative="1" as="geometry" />
        </mxCell>
        <mxCell id="mJbxCkgHBfYPzWmktXoz-249" value="" style="edgeStyle=orthogonalEdgeStyle;rounded=0;sketch=0;jumpStyle=none;orthogonalLoop=1;jettySize=auto;html=1;fontSize=25;strokeColor=#000000;strokeWidth=3;fontStyle=0" edge="1" parent="1" source="mJbxCkgHBfYPzWmktXoz-188" target="mJbxCkgHBfYPzWmktXoz-248">
          <mxGeometry relative="1" as="geometry" />
        </mxCell>
        <mxCell id="mJbxCkgHBfYPzWmktXoz-251" value="" style="edgeStyle=orthogonalEdgeStyle;rounded=0;sketch=0;jumpStyle=none;orthogonalLoop=1;jettySize=auto;html=1;fontSize=25;strokeColor=#000000;strokeWidth=3;fontStyle=0" edge="1" parent="1" source="mJbxCkgHBfYPzWmktXoz-192" target="mJbxCkgHBfYPzWmktXoz-250">
          <mxGeometry relative="1" as="geometry" />
        </mxCell>
        <mxCell id="mJbxCkgHBfYPzWmktXoz-253" value="" style="edgeStyle=orthogonalEdgeStyle;rounded=0;sketch=0;jumpStyle=none;orthogonalLoop=1;jettySize=auto;html=1;fontSize=25;strokeColor=#000000;strokeWidth=3;fontStyle=0" edge="1" parent="1" source="mJbxCkgHBfYPzWmktXoz-193" target="mJbxCkgHBfYPzWmktXoz-252">
          <mxGeometry relative="1" as="geometry" />
        </mxCell>
        <mxCell id="mJbxCkgHBfYPzWmktXoz-255" value="" style="edgeStyle=orthogonalEdgeStyle;rounded=0;sketch=0;jumpStyle=none;orthogonalLoop=1;jettySize=auto;html=1;fontSize=25;strokeColor=#000000;strokeWidth=3;fontStyle=0" edge="1" parent="1" source="mJbxCkgHBfYPzWmktXoz-197" target="mJbxCkgHBfYPzWmktXoz-254">
          <mxGeometry relative="1" as="geometry" />
        </mxCell>
        <mxCell id="mJbxCkgHBfYPzWmktXoz-257" value="" style="edgeStyle=orthogonalEdgeStyle;rounded=0;sketch=0;jumpStyle=none;orthogonalLoop=1;jettySize=auto;html=1;fontSize=25;strokeColor=#000000;strokeWidth=3;fontStyle=0" edge="1" parent="1" source="mJbxCkgHBfYPzWmktXoz-198" target="mJbxCkgHBfYPzWmktXoz-256">
          <mxGeometry relative="1" as="geometry" />
        </mxCell>
        <mxCell id="mJbxCkgHBfYPzWmktXoz-274" value="" style="endArrow=none;dashed=1;html=1;fontSize=35;strokeColor=#000000;strokeWidth=3;" edge="1" parent="1">
          <mxGeometry width="50" height="50" relative="1" as="geometry">
            <mxPoint x="-2060" y="288" as="sourcePoint" />
            <mxPoint x="2470" y="288" as="targetPoint" />
          </mxGeometry>
        </mxCell>
        <mxCell id="mJbxCkgHBfYPzWmktXoz-276" value="" style="endArrow=none;dashed=1;html=1;fontSize=35;strokeColor=#000000;strokeWidth=3;" edge="1" parent="1">
          <mxGeometry width="50" height="50" relative="1" as="geometry">
            <mxPoint x="-2070" y="558.3299999999999" as="sourcePoint" />
            <mxPoint x="2460.000000000001" y="558.3299999999999" as="targetPoint" />
          </mxGeometry>
        </mxCell>
        <mxCell id="mJbxCkgHBfYPzWmktXoz-277" value="" style="endArrow=none;dashed=1;html=1;fontSize=35;strokeColor=#000000;strokeWidth=3;" edge="1" parent="1">
          <mxGeometry width="50" height="50" relative="1" as="geometry">
            <mxPoint x="-2060" y="750" as="sourcePoint" />
            <mxPoint x="2470.000000000001" y="750" as="targetPoint" />
          </mxGeometry>
        </mxCell>
        <mxCell id="mJbxCkgHBfYPzWmktXoz-278" value="" style="endArrow=none;dashed=1;html=1;fontSize=35;strokeColor=#000000;strokeWidth=3;" edge="1" parent="1">
          <mxGeometry width="50" height="50" relative="1" as="geometry">
            <mxPoint x="-2060" y="910.0000000000003" as="sourcePoint" />
            <mxPoint x="2470.000000000001" y="910.0000000000003" as="targetPoint" />
          </mxGeometry>
        </mxCell>
        <mxCell id="mJbxCkgHBfYPzWmktXoz-1" value="&lt;font style=&quot;font-size: 35px;&quot;&gt;ROOT&lt;/font&gt;" style="ellipse;whiteSpace=wrap;html=1;aspect=fixed;fontSize=35;fontStyle=0" vertex="1" parent="1">
          <mxGeometry x="330" y="-150" width="150" height="150" as="geometry" />
        </mxCell>
        <mxCell id="mJbxCkgHBfYPzWmktXoz-2" value="1" style="ellipse;whiteSpace=wrap;html=1;aspect=fixed;fontSize=35;fontStyle=0" vertex="1" parent="1">
          <mxGeometry x="-1240" y="250" width="80" height="80" as="geometry" />
        </mxCell>
        <mxCell id="mJbxCkgHBfYPzWmktXoz-22" value="2" style="ellipse;whiteSpace=wrap;html=1;aspect=fixed;fontSize=35;fontStyle=0" vertex="1" parent="1">
          <mxGeometry x="-1510" y="520" width="80" height="80" as="geometry" />
        </mxCell>
        <mxCell id="mJbxCkgHBfYPzWmktXoz-106" value="3" style="ellipse;whiteSpace=wrap;html=1;aspect=fixed;fontSize=35;fontStyle=0" vertex="1" parent="1">
          <mxGeometry x="-1590" y="710" width="80" height="80" as="geometry" />
        </mxCell>
        <mxCell id="mJbxCkgHBfYPzWmktXoz-107" value="4" style="ellipse;whiteSpace=wrap;html=1;aspect=fixed;fontSize=35;fontStyle=0" vertex="1" parent="1">
          <mxGeometry x="-1430" y="710" width="80" height="80" as="geometry" />
        </mxCell>
        <mxCell id="mJbxCkgHBfYPzWmktXoz-111" value="3" style="ellipse;whiteSpace=wrap;html=1;aspect=fixed;fontSize=35;fontStyle=0" vertex="1" parent="1">
          <mxGeometry x="-1240" y="520" width="80" height="80" as="geometry" />
        </mxCell>
        <mxCell id="mJbxCkgHBfYPzWmktXoz-112" value="2" style="ellipse;whiteSpace=wrap;html=1;aspect=fixed;fontSize=35;fontStyle=0" vertex="1" parent="1">
          <mxGeometry x="-1320" y="710" width="80" height="80" as="geometry" />
        </mxCell>
        <mxCell id="mJbxCkgHBfYPzWmktXoz-113" value="4" style="ellipse;whiteSpace=wrap;html=1;aspect=fixed;fontSize=35;fontStyle=0" vertex="1" parent="1">
          <mxGeometry x="-1160" y="710" width="80" height="80" as="geometry" />
        </mxCell>
        <mxCell id="mJbxCkgHBfYPzWmktXoz-116" value="4" style="ellipse;whiteSpace=wrap;html=1;aspect=fixed;fontSize=35;fontStyle=0" vertex="1" parent="1">
          <mxGeometry x="-960" y="520" width="80" height="80" as="geometry" />
        </mxCell>
        <mxCell id="mJbxCkgHBfYPzWmktXoz-117" value="3" style="ellipse;whiteSpace=wrap;html=1;aspect=fixed;fontSize=35;fontStyle=0" vertex="1" parent="1">
          <mxGeometry x="-1040" y="710" width="80" height="80" as="geometry" />
        </mxCell>
        <mxCell id="mJbxCkgHBfYPzWmktXoz-118" value="2" style="ellipse;whiteSpace=wrap;html=1;aspect=fixed;fontSize=35;fontStyle=0" vertex="1" parent="1">
          <mxGeometry x="-880" y="710" width="80" height="80" as="geometry" />
        </mxCell>
        <mxCell id="mJbxCkgHBfYPzWmktXoz-162" value="`" style="group;fontStyle=0;fontSize=35;" vertex="1" connectable="0" parent="1">
          <mxGeometry x="-560" y="250" width="790" height="540" as="geometry" />
        </mxCell>
        <mxCell id="mJbxCkgHBfYPzWmktXoz-145" value="" style="endArrow=classic;html=1;strokeColor=#000000;strokeWidth=3;entryX=1;entryY=0;entryDx=0;entryDy=0;exitX=0;exitY=1;exitDx=0;exitDy=0;fontStyle=0" edge="1" parent="mJbxCkgHBfYPzWmktXoz-162" source="mJbxCkgHBfYPzWmktXoz-143" target="mJbxCkgHBfYPzWmktXoz-144">
          <mxGeometry width="50" height="50" relative="1" as="geometry">
            <mxPoint x="390" y="80" as="sourcePoint" />
            <mxPoint x="330" y="100" as="targetPoint" />
          </mxGeometry>
        </mxCell>
        <mxCell id="mJbxCkgHBfYPzWmktXoz-148" value="" style="endArrow=classic;html=1;strokeColor=#000000;strokeWidth=3;entryX=0.5;entryY=0;entryDx=0;entryDy=0;exitX=0;exitY=1;exitDx=0;exitDy=0;fontStyle=0" edge="1" parent="mJbxCkgHBfYPzWmktXoz-162" source="mJbxCkgHBfYPzWmktXoz-144" target="mJbxCkgHBfYPzWmktXoz-146">
          <mxGeometry width="50" height="50" relative="1" as="geometry">
            <mxPoint x="411.7157287525383" y="78.28427124746122" as="sourcePoint" />
            <mxPoint x="158.28427124744758" y="291.71572875255197" as="targetPoint" />
          </mxGeometry>
        </mxCell>
        <mxCell id="mJbxCkgHBfYPzWmktXoz-149" value="" style="endArrow=classic;html=1;strokeColor=#000000;strokeWidth=3;entryX=0.5;entryY=0;entryDx=0;entryDy=0;exitX=1;exitY=1;exitDx=0;exitDy=0;fontStyle=0" edge="1" parent="mJbxCkgHBfYPzWmktXoz-162" source="mJbxCkgHBfYPzWmktXoz-144">
          <mxGeometry width="50" height="50" relative="1" as="geometry">
            <mxPoint x="251.71572875255242" y="338.2842712474471" as="sourcePoint" />
            <mxPoint x="200" y="460" as="targetPoint" />
          </mxGeometry>
        </mxCell>
        <mxCell id="mJbxCkgHBfYPzWmktXoz-153" value="" style="endArrow=classic;html=1;strokeColor=#000000;strokeWidth=3;entryX=0.5;entryY=0;entryDx=0;entryDy=0;exitX=0;exitY=1;exitDx=0;exitDy=0;fontStyle=0" edge="1" parent="mJbxCkgHBfYPzWmktXoz-162" source="mJbxCkgHBfYPzWmktXoz-150" target="mJbxCkgHBfYPzWmktXoz-151">
          <mxGeometry width="50" height="50" relative="1" as="geometry">
            <mxPoint x="681.7157287525383" y="78.28427124746122" as="sourcePoint" />
            <mxPoint x="428.2842712474476" y="291.71572875255197" as="targetPoint" />
          </mxGeometry>
        </mxCell>
        <mxCell id="mJbxCkgHBfYPzWmktXoz-154" value="" style="endArrow=classic;html=1;strokeColor=#000000;strokeWidth=3;entryX=0.5;entryY=0;entryDx=0;entryDy=0;exitX=1;exitY=1;exitDx=0;exitDy=0;fontStyle=0" edge="1" parent="mJbxCkgHBfYPzWmktXoz-162" source="mJbxCkgHBfYPzWmktXoz-150">
          <mxGeometry width="50" height="50" relative="1" as="geometry">
            <mxPoint x="521.7157287525524" y="338.2842712474471" as="sourcePoint" />
            <mxPoint x="470" y="460" as="targetPoint" />
          </mxGeometry>
        </mxCell>
        <mxCell id="mJbxCkgHBfYPzWmktXoz-158" value="" style="endArrow=classic;html=1;strokeColor=#000000;strokeWidth=3;entryX=0.5;entryY=0;entryDx=0;entryDy=0;exitX=0;exitY=1;exitDx=0;exitDy=0;fontStyle=0" edge="1" parent="mJbxCkgHBfYPzWmktXoz-162" source="mJbxCkgHBfYPzWmktXoz-155" target="mJbxCkgHBfYPzWmktXoz-156">
          <mxGeometry width="50" height="50" relative="1" as="geometry">
            <mxPoint x="961.7157287525383" y="78.28427124746122" as="sourcePoint" />
            <mxPoint x="708.2842712474476" y="291.71572875255197" as="targetPoint" />
          </mxGeometry>
        </mxCell>
        <mxCell id="mJbxCkgHBfYPzWmktXoz-159" value="" style="endArrow=classic;html=1;strokeColor=#000000;strokeWidth=3;entryX=0.5;entryY=0;entryDx=0;entryDy=0;exitX=1;exitY=1;exitDx=0;exitDy=0;fontStyle=0" edge="1" parent="mJbxCkgHBfYPzWmktXoz-162" source="mJbxCkgHBfYPzWmktXoz-155">
          <mxGeometry width="50" height="50" relative="1" as="geometry">
            <mxPoint x="801.7157287525524" y="338.2842712474471" as="sourcePoint" />
            <mxPoint x="750" y="460" as="targetPoint" />
          </mxGeometry>
        </mxCell>
        <mxCell id="mJbxCkgHBfYPzWmktXoz-160" value="" style="endArrow=classic;html=1;strokeColor=#000000;strokeWidth=3;entryX=0.5;entryY=0;entryDx=0;entryDy=0;fontStyle=0" edge="1" parent="mJbxCkgHBfYPzWmktXoz-162" target="mJbxCkgHBfYPzWmktXoz-150">
          <mxGeometry width="50" height="50" relative="1" as="geometry">
            <mxPoint x="390" y="80" as="sourcePoint" />
            <mxPoint x="180.0042712474476" y="293.435728752552" as="targetPoint" />
          </mxGeometry>
        </mxCell>
        <mxCell id="mJbxCkgHBfYPzWmktXoz-161" value="" style="endArrow=classic;html=1;strokeColor=#000000;strokeWidth=3;entryX=0.5;entryY=0;entryDx=0;entryDy=0;exitX=1;exitY=1;exitDx=0;exitDy=0;fontStyle=0" edge="1" parent="mJbxCkgHBfYPzWmktXoz-162" source="mJbxCkgHBfYPzWmktXoz-143">
          <mxGeometry width="50" height="50" relative="1" as="geometry">
            <mxPoint x="668.5699999999999" y="80" as="sourcePoint" />
            <mxPoint x="668.5699999999997" y="270" as="targetPoint" />
          </mxGeometry>
        </mxCell>
        <mxCell id="mJbxCkgHBfYPzWmktXoz-143" value="2" style="ellipse;whiteSpace=wrap;html=1;aspect=fixed;fontSize=35;fontStyle=0" vertex="1" parent="mJbxCkgHBfYPzWmktXoz-162">
          <mxGeometry x="350" width="80" height="80" as="geometry" />
        </mxCell>
        <mxCell id="mJbxCkgHBfYPzWmktXoz-144" value="1" style="ellipse;whiteSpace=wrap;html=1;aspect=fixed;fontSize=35;fontStyle=0" vertex="1" parent="mJbxCkgHBfYPzWmktXoz-162">
          <mxGeometry x="80" y="270" width="80" height="80" as="geometry" />
        </mxCell>
        <mxCell id="mJbxCkgHBfYPzWmktXoz-146" value="3" style="ellipse;whiteSpace=wrap;html=1;aspect=fixed;fontSize=35;fontStyle=0" vertex="1" parent="mJbxCkgHBfYPzWmktXoz-162">
          <mxGeometry y="460" width="80" height="80" as="geometry" />
        </mxCell>
        <mxCell id="mJbxCkgHBfYPzWmktXoz-147" value="4" style="ellipse;whiteSpace=wrap;html=1;aspect=fixed;fontSize=35;fontStyle=0" vertex="1" parent="mJbxCkgHBfYPzWmktXoz-162">
          <mxGeometry x="160" y="460" width="80" height="80" as="geometry" />
        </mxCell>
        <mxCell id="mJbxCkgHBfYPzWmktXoz-150" value="3" style="ellipse;whiteSpace=wrap;html=1;aspect=fixed;fontSize=35;fontStyle=0" vertex="1" parent="mJbxCkgHBfYPzWmktXoz-162">
          <mxGeometry x="350" y="270" width="80" height="80" as="geometry" />
        </mxCell>
        <mxCell id="mJbxCkgHBfYPzWmktXoz-151" value="1" style="ellipse;whiteSpace=wrap;html=1;aspect=fixed;fontSize=35;fontStyle=0" vertex="1" parent="mJbxCkgHBfYPzWmktXoz-162">
          <mxGeometry x="270" y="460" width="80" height="80" as="geometry" />
        </mxCell>
        <mxCell id="mJbxCkgHBfYPzWmktXoz-152" value="4" style="ellipse;whiteSpace=wrap;html=1;aspect=fixed;fontSize=35;fontStyle=0" vertex="1" parent="mJbxCkgHBfYPzWmktXoz-162">
          <mxGeometry x="430" y="460" width="80" height="80" as="geometry" />
        </mxCell>
        <mxCell id="mJbxCkgHBfYPzWmktXoz-155" value="4" style="ellipse;whiteSpace=wrap;html=1;aspect=fixed;fontSize=35;fontStyle=0" vertex="1" parent="mJbxCkgHBfYPzWmktXoz-162">
          <mxGeometry x="630" y="270" width="80" height="80" as="geometry" />
        </mxCell>
        <mxCell id="mJbxCkgHBfYPzWmktXoz-156" value="1" style="ellipse;whiteSpace=wrap;html=1;aspect=fixed;fontSize=35;fontStyle=0" vertex="1" parent="mJbxCkgHBfYPzWmktXoz-162">
          <mxGeometry x="550" y="460" width="80" height="80" as="geometry" />
        </mxCell>
        <mxCell id="mJbxCkgHBfYPzWmktXoz-157" value="3" style="ellipse;whiteSpace=wrap;html=1;aspect=fixed;fontSize=35;fontStyle=0" vertex="1" parent="mJbxCkgHBfYPzWmktXoz-162">
          <mxGeometry x="710" y="460" width="80" height="80" as="geometry" />
        </mxCell>
        <mxCell id="mJbxCkgHBfYPzWmktXoz-203" value="" style="group;fontSize=35;fontStyle=0" vertex="1" connectable="0" parent="1">
          <mxGeometry x="520" y="250" width="1770" height="540" as="geometry" />
        </mxCell>
        <mxCell id="mJbxCkgHBfYPzWmktXoz-166" value="" style="endArrow=classic;html=1;strokeColor=#000000;strokeWidth=3;entryX=1;entryY=0;entryDx=0;entryDy=0;exitX=0;exitY=1;exitDx=0;exitDy=0;fontStyle=0" edge="1" parent="mJbxCkgHBfYPzWmktXoz-203" source="mJbxCkgHBfYPzWmktXoz-164" target="mJbxCkgHBfYPzWmktXoz-165">
          <mxGeometry width="50" height="50" relative="1" as="geometry">
            <mxPoint x="390" y="80" as="sourcePoint" />
            <mxPoint x="330" y="100" as="targetPoint" />
          </mxGeometry>
        </mxCell>
        <mxCell id="mJbxCkgHBfYPzWmktXoz-169" value="" style="endArrow=classic;html=1;strokeColor=#000000;strokeWidth=3;entryX=0.5;entryY=0;entryDx=0;entryDy=0;exitX=0;exitY=1;exitDx=0;exitDy=0;fontStyle=0" edge="1" parent="mJbxCkgHBfYPzWmktXoz-203" source="mJbxCkgHBfYPzWmktXoz-165" target="mJbxCkgHBfYPzWmktXoz-167">
          <mxGeometry width="50" height="50" relative="1" as="geometry">
            <mxPoint x="411.7157287525383" y="78.28427124746122" as="sourcePoint" />
            <mxPoint x="158.28427124744758" y="291.71572875255197" as="targetPoint" />
          </mxGeometry>
        </mxCell>
        <mxCell id="mJbxCkgHBfYPzWmktXoz-170" value="" style="endArrow=classic;html=1;strokeColor=#000000;strokeWidth=3;entryX=0.5;entryY=0;entryDx=0;entryDy=0;exitX=1;exitY=1;exitDx=0;exitDy=0;fontStyle=0" edge="1" parent="mJbxCkgHBfYPzWmktXoz-203" source="mJbxCkgHBfYPzWmktXoz-165">
          <mxGeometry width="50" height="50" relative="1" as="geometry">
            <mxPoint x="251.71572875255242" y="338.2842712474471" as="sourcePoint" />
            <mxPoint x="200" y="460" as="targetPoint" />
          </mxGeometry>
        </mxCell>
        <mxCell id="mJbxCkgHBfYPzWmktXoz-174" value="" style="endArrow=classic;html=1;strokeColor=#000000;strokeWidth=3;entryX=0.5;entryY=0;entryDx=0;entryDy=0;exitX=0;exitY=1;exitDx=0;exitDy=0;fontStyle=0" edge="1" parent="mJbxCkgHBfYPzWmktXoz-203" source="mJbxCkgHBfYPzWmktXoz-171" target="mJbxCkgHBfYPzWmktXoz-172">
          <mxGeometry width="50" height="50" relative="1" as="geometry">
            <mxPoint x="681.7157287525383" y="78.28427124746122" as="sourcePoint" />
            <mxPoint x="428.2842712474476" y="291.71572875255197" as="targetPoint" />
          </mxGeometry>
        </mxCell>
        <mxCell id="mJbxCkgHBfYPzWmktXoz-175" value="" style="endArrow=classic;html=1;strokeColor=#000000;strokeWidth=3;entryX=0.5;entryY=0;entryDx=0;entryDy=0;exitX=1;exitY=1;exitDx=0;exitDy=0;fontStyle=0" edge="1" parent="mJbxCkgHBfYPzWmktXoz-203" source="mJbxCkgHBfYPzWmktXoz-171">
          <mxGeometry width="50" height="50" relative="1" as="geometry">
            <mxPoint x="521.7157287525524" y="338.2842712474471" as="sourcePoint" />
            <mxPoint x="470" y="460" as="targetPoint" />
          </mxGeometry>
        </mxCell>
        <mxCell id="mJbxCkgHBfYPzWmktXoz-179" value="" style="endArrow=classic;html=1;strokeColor=#000000;strokeWidth=3;entryX=0.5;entryY=0;entryDx=0;entryDy=0;exitX=0;exitY=1;exitDx=0;exitDy=0;fontStyle=0" edge="1" parent="mJbxCkgHBfYPzWmktXoz-203" source="mJbxCkgHBfYPzWmktXoz-176" target="mJbxCkgHBfYPzWmktXoz-177">
          <mxGeometry width="50" height="50" relative="1" as="geometry">
            <mxPoint x="961.7157287525383" y="78.28427124746122" as="sourcePoint" />
            <mxPoint x="708.2842712474476" y="291.71572875255197" as="targetPoint" />
          </mxGeometry>
        </mxCell>
        <mxCell id="mJbxCkgHBfYPzWmktXoz-180" value="" style="endArrow=classic;html=1;strokeColor=#000000;strokeWidth=3;entryX=0.5;entryY=0;entryDx=0;entryDy=0;exitX=1;exitY=1;exitDx=0;exitDy=0;fontStyle=0" edge="1" parent="mJbxCkgHBfYPzWmktXoz-203" source="mJbxCkgHBfYPzWmktXoz-176">
          <mxGeometry width="50" height="50" relative="1" as="geometry">
            <mxPoint x="801.7157287525524" y="338.2842712474471" as="sourcePoint" />
            <mxPoint x="750" y="460" as="targetPoint" />
          </mxGeometry>
        </mxCell>
        <mxCell id="mJbxCkgHBfYPzWmktXoz-181" value="" style="endArrow=classic;html=1;strokeColor=#000000;strokeWidth=3;entryX=0.5;entryY=0;entryDx=0;entryDy=0;fontStyle=0" edge="1" parent="mJbxCkgHBfYPzWmktXoz-203" target="mJbxCkgHBfYPzWmktXoz-171">
          <mxGeometry width="50" height="50" relative="1" as="geometry">
            <mxPoint x="390" y="80" as="sourcePoint" />
            <mxPoint x="180.0042712474476" y="293.435728752552" as="targetPoint" />
          </mxGeometry>
        </mxCell>
        <mxCell id="mJbxCkgHBfYPzWmktXoz-182" value="" style="endArrow=classic;html=1;strokeColor=#000000;strokeWidth=3;entryX=0.5;entryY=0;entryDx=0;entryDy=0;exitX=1;exitY=1;exitDx=0;exitDy=0;fontStyle=0" edge="1" parent="mJbxCkgHBfYPzWmktXoz-203" source="mJbxCkgHBfYPzWmktXoz-164">
          <mxGeometry width="50" height="50" relative="1" as="geometry">
            <mxPoint x="668.5699999999999" y="80" as="sourcePoint" />
            <mxPoint x="668.5699999999997" y="270" as="targetPoint" />
          </mxGeometry>
        </mxCell>
        <mxCell id="mJbxCkgHBfYPzWmktXoz-164" value="3" style="ellipse;whiteSpace=wrap;html=1;aspect=fixed;fontSize=35;fontStyle=0" vertex="1" parent="mJbxCkgHBfYPzWmktXoz-203">
          <mxGeometry x="350" width="80" height="80" as="geometry" />
        </mxCell>
        <mxCell id="mJbxCkgHBfYPzWmktXoz-165" value="1" style="ellipse;whiteSpace=wrap;html=1;aspect=fixed;fontSize=35;fontStyle=0" vertex="1" parent="mJbxCkgHBfYPzWmktXoz-203">
          <mxGeometry x="80" y="270" width="80" height="80" as="geometry" />
        </mxCell>
        <mxCell id="mJbxCkgHBfYPzWmktXoz-167" value="2" style="ellipse;whiteSpace=wrap;html=1;aspect=fixed;fontSize=35;fontStyle=0" vertex="1" parent="mJbxCkgHBfYPzWmktXoz-203">
          <mxGeometry y="460" width="80" height="80" as="geometry" />
        </mxCell>
        <mxCell id="mJbxCkgHBfYPzWmktXoz-168" value="4" style="ellipse;whiteSpace=wrap;html=1;aspect=fixed;fontSize=35;fontStyle=0" vertex="1" parent="mJbxCkgHBfYPzWmktXoz-203">
          <mxGeometry x="160" y="460" width="80" height="80" as="geometry" />
        </mxCell>
        <mxCell id="mJbxCkgHBfYPzWmktXoz-171" value="2" style="ellipse;whiteSpace=wrap;html=1;aspect=fixed;fontSize=35;fontStyle=0" vertex="1" parent="mJbxCkgHBfYPzWmktXoz-203">
          <mxGeometry x="350" y="270" width="80" height="80" as="geometry" />
        </mxCell>
        <mxCell id="mJbxCkgHBfYPzWmktXoz-172" value="1" style="ellipse;whiteSpace=wrap;html=1;aspect=fixed;fontSize=35;fontStyle=0" vertex="1" parent="mJbxCkgHBfYPzWmktXoz-203">
          <mxGeometry x="270" y="460" width="80" height="80" as="geometry" />
        </mxCell>
        <mxCell id="mJbxCkgHBfYPzWmktXoz-173" value="4" style="ellipse;whiteSpace=wrap;html=1;aspect=fixed;fontSize=35;fontStyle=0" vertex="1" parent="mJbxCkgHBfYPzWmktXoz-203">
          <mxGeometry x="430" y="460" width="80" height="80" as="geometry" />
        </mxCell>
        <mxCell id="mJbxCkgHBfYPzWmktXoz-176" value="4" style="ellipse;whiteSpace=wrap;html=1;aspect=fixed;fontSize=35;fontStyle=0" vertex="1" parent="mJbxCkgHBfYPzWmktXoz-203">
          <mxGeometry x="630" y="270" width="80" height="80" as="geometry" />
        </mxCell>
        <mxCell id="mJbxCkgHBfYPzWmktXoz-177" value="1" style="ellipse;whiteSpace=wrap;html=1;aspect=fixed;fontSize=35;fontStyle=0" vertex="1" parent="mJbxCkgHBfYPzWmktXoz-203">
          <mxGeometry x="550" y="460" width="80" height="80" as="geometry" />
        </mxCell>
        <mxCell id="mJbxCkgHBfYPzWmktXoz-178" value="3" style="ellipse;whiteSpace=wrap;html=1;aspect=fixed;fontSize=35;fontStyle=0" vertex="1" parent="mJbxCkgHBfYPzWmktXoz-203">
          <mxGeometry x="710" y="460" width="80" height="80" as="geometry" />
        </mxCell>
        <mxCell id="mJbxCkgHBfYPzWmktXoz-183" value="" style="group;fontStyle=0;fontSize=35;" vertex="1" connectable="0" parent="mJbxCkgHBfYPzWmktXoz-203">
          <mxGeometry x="980" width="790" height="540" as="geometry" />
        </mxCell>
        <mxCell id="mJbxCkgHBfYPzWmktXoz-186" value="" style="endArrow=classic;html=1;strokeColor=#000000;strokeWidth=3;entryX=1;entryY=0;entryDx=0;entryDy=0;exitX=0;exitY=1;exitDx=0;exitDy=0;fontStyle=0" edge="1" parent="mJbxCkgHBfYPzWmktXoz-183" source="mJbxCkgHBfYPzWmktXoz-184" target="mJbxCkgHBfYPzWmktXoz-185">
          <mxGeometry width="50" height="50" relative="1" as="geometry">
            <mxPoint x="390" y="80" as="sourcePoint" />
            <mxPoint x="330" y="100" as="targetPoint" />
          </mxGeometry>
        </mxCell>
        <mxCell id="mJbxCkgHBfYPzWmktXoz-189" value="" style="endArrow=classic;html=1;strokeColor=#000000;strokeWidth=3;entryX=0.5;entryY=0;entryDx=0;entryDy=0;exitX=0;exitY=1;exitDx=0;exitDy=0;fontStyle=0" edge="1" parent="mJbxCkgHBfYPzWmktXoz-183" source="mJbxCkgHBfYPzWmktXoz-185" target="mJbxCkgHBfYPzWmktXoz-187">
          <mxGeometry width="50" height="50" relative="1" as="geometry">
            <mxPoint x="411.7157287525383" y="78.28427124746122" as="sourcePoint" />
            <mxPoint x="158.28427124744758" y="291.71572875255197" as="targetPoint" />
          </mxGeometry>
        </mxCell>
        <mxCell id="mJbxCkgHBfYPzWmktXoz-190" value="" style="endArrow=classic;html=1;strokeColor=#000000;strokeWidth=3;entryX=0.5;entryY=0;entryDx=0;entryDy=0;exitX=1;exitY=1;exitDx=0;exitDy=0;fontStyle=0" edge="1" parent="mJbxCkgHBfYPzWmktXoz-183" source="mJbxCkgHBfYPzWmktXoz-185">
          <mxGeometry width="50" height="50" relative="1" as="geometry">
            <mxPoint x="251.71572875255242" y="338.2842712474471" as="sourcePoint" />
            <mxPoint x="200" y="460" as="targetPoint" />
          </mxGeometry>
        </mxCell>
        <mxCell id="mJbxCkgHBfYPzWmktXoz-194" value="" style="endArrow=classic;html=1;strokeColor=#000000;strokeWidth=3;entryX=0.5;entryY=0;entryDx=0;entryDy=0;exitX=0;exitY=1;exitDx=0;exitDy=0;fontStyle=0" edge="1" parent="mJbxCkgHBfYPzWmktXoz-183" source="mJbxCkgHBfYPzWmktXoz-191" target="mJbxCkgHBfYPzWmktXoz-192">
          <mxGeometry width="50" height="50" relative="1" as="geometry">
            <mxPoint x="681.7157287525383" y="78.28427124746122" as="sourcePoint" />
            <mxPoint x="428.2842712474476" y="291.71572875255197" as="targetPoint" />
          </mxGeometry>
        </mxCell>
        <mxCell id="mJbxCkgHBfYPzWmktXoz-195" value="" style="endArrow=classic;html=1;strokeColor=#000000;strokeWidth=3;entryX=0.5;entryY=0;entryDx=0;entryDy=0;exitX=1;exitY=1;exitDx=0;exitDy=0;fontStyle=0" edge="1" parent="mJbxCkgHBfYPzWmktXoz-183" source="mJbxCkgHBfYPzWmktXoz-191">
          <mxGeometry width="50" height="50" relative="1" as="geometry">
            <mxPoint x="521.7157287525524" y="338.2842712474471" as="sourcePoint" />
            <mxPoint x="470" y="460" as="targetPoint" />
          </mxGeometry>
        </mxCell>
        <mxCell id="mJbxCkgHBfYPzWmktXoz-199" value="" style="endArrow=classic;html=1;strokeColor=#000000;strokeWidth=3;entryX=0.5;entryY=0;entryDx=0;entryDy=0;exitX=0;exitY=1;exitDx=0;exitDy=0;fontStyle=0" edge="1" parent="mJbxCkgHBfYPzWmktXoz-183" source="mJbxCkgHBfYPzWmktXoz-196" target="mJbxCkgHBfYPzWmktXoz-197">
          <mxGeometry width="50" height="50" relative="1" as="geometry">
            <mxPoint x="961.7157287525383" y="78.28427124746122" as="sourcePoint" />
            <mxPoint x="708.2842712474476" y="291.71572875255197" as="targetPoint" />
          </mxGeometry>
        </mxCell>
        <mxCell id="mJbxCkgHBfYPzWmktXoz-200" value="" style="endArrow=classic;html=1;strokeColor=#000000;strokeWidth=3;entryX=0.5;entryY=0;entryDx=0;entryDy=0;exitX=1;exitY=1;exitDx=0;exitDy=0;fontStyle=0" edge="1" parent="mJbxCkgHBfYPzWmktXoz-183" source="mJbxCkgHBfYPzWmktXoz-196">
          <mxGeometry width="50" height="50" relative="1" as="geometry">
            <mxPoint x="801.7157287525524" y="338.2842712474471" as="sourcePoint" />
            <mxPoint x="750" y="460" as="targetPoint" />
          </mxGeometry>
        </mxCell>
        <mxCell id="mJbxCkgHBfYPzWmktXoz-201" value="" style="endArrow=classic;html=1;strokeColor=#000000;strokeWidth=3;entryX=0.5;entryY=0;entryDx=0;entryDy=0;fontStyle=0" edge="1" parent="mJbxCkgHBfYPzWmktXoz-183" target="mJbxCkgHBfYPzWmktXoz-191">
          <mxGeometry width="50" height="50" relative="1" as="geometry">
            <mxPoint x="390" y="80" as="sourcePoint" />
            <mxPoint x="180.0042712474476" y="293.435728752552" as="targetPoint" />
          </mxGeometry>
        </mxCell>
        <mxCell id="mJbxCkgHBfYPzWmktXoz-202" value="" style="endArrow=classic;html=1;strokeColor=#000000;strokeWidth=3;entryX=0.5;entryY=0;entryDx=0;entryDy=0;exitX=1;exitY=1;exitDx=0;exitDy=0;fontStyle=0" edge="1" parent="mJbxCkgHBfYPzWmktXoz-183" source="mJbxCkgHBfYPzWmktXoz-184">
          <mxGeometry width="50" height="50" relative="1" as="geometry">
            <mxPoint x="668.5699999999999" y="80" as="sourcePoint" />
            <mxPoint x="668.5699999999997" y="270" as="targetPoint" />
          </mxGeometry>
        </mxCell>
        <mxCell id="mJbxCkgHBfYPzWmktXoz-184" value="4" style="ellipse;whiteSpace=wrap;html=1;aspect=fixed;fontSize=35;fontStyle=0" vertex="1" parent="mJbxCkgHBfYPzWmktXoz-183">
          <mxGeometry x="350" width="80" height="80" as="geometry" />
        </mxCell>
        <mxCell id="mJbxCkgHBfYPzWmktXoz-185" value="1" style="ellipse;whiteSpace=wrap;html=1;aspect=fixed;fontSize=35;fontStyle=0" vertex="1" parent="mJbxCkgHBfYPzWmktXoz-183">
          <mxGeometry x="80" y="270" width="80" height="80" as="geometry" />
        </mxCell>
        <mxCell id="mJbxCkgHBfYPzWmktXoz-187" value="2" style="ellipse;whiteSpace=wrap;html=1;aspect=fixed;fontSize=35;fontStyle=0" vertex="1" parent="mJbxCkgHBfYPzWmktXoz-183">
          <mxGeometry y="460" width="80" height="80" as="geometry" />
        </mxCell>
        <mxCell id="mJbxCkgHBfYPzWmktXoz-188" value="3" style="ellipse;whiteSpace=wrap;html=1;aspect=fixed;fontSize=35;fontStyle=0" vertex="1" parent="mJbxCkgHBfYPzWmktXoz-183">
          <mxGeometry x="160" y="460" width="80" height="80" as="geometry" />
        </mxCell>
        <mxCell id="mJbxCkgHBfYPzWmktXoz-191" value="2" style="ellipse;whiteSpace=wrap;html=1;aspect=fixed;fontSize=35;fontStyle=0" vertex="1" parent="mJbxCkgHBfYPzWmktXoz-183">
          <mxGeometry x="350" y="270" width="80" height="80" as="geometry" />
        </mxCell>
        <mxCell id="mJbxCkgHBfYPzWmktXoz-192" value="1" style="ellipse;whiteSpace=wrap;html=1;aspect=fixed;fontSize=35;fontStyle=0" vertex="1" parent="mJbxCkgHBfYPzWmktXoz-183">
          <mxGeometry x="270" y="460" width="80" height="80" as="geometry" />
        </mxCell>
        <mxCell id="mJbxCkgHBfYPzWmktXoz-193" value="3" style="ellipse;whiteSpace=wrap;html=1;aspect=fixed;fontSize=35;fontStyle=0" vertex="1" parent="mJbxCkgHBfYPzWmktXoz-183">
          <mxGeometry x="430" y="460" width="80" height="80" as="geometry" />
        </mxCell>
        <mxCell id="mJbxCkgHBfYPzWmktXoz-196" value="3" style="ellipse;whiteSpace=wrap;html=1;aspect=fixed;fontSize=35;fontStyle=0" vertex="1" parent="mJbxCkgHBfYPzWmktXoz-183">
          <mxGeometry x="630" y="270" width="80" height="80" as="geometry" />
        </mxCell>
        <mxCell id="mJbxCkgHBfYPzWmktXoz-197" value="1" style="ellipse;whiteSpace=wrap;html=1;aspect=fixed;fontSize=35;fontStyle=0" vertex="1" parent="mJbxCkgHBfYPzWmktXoz-183">
          <mxGeometry x="550" y="460" width="80" height="80" as="geometry" />
        </mxCell>
        <mxCell id="mJbxCkgHBfYPzWmktXoz-198" value="2" style="ellipse;whiteSpace=wrap;html=1;aspect=fixed;fontSize=35;fontStyle=0" vertex="1" parent="mJbxCkgHBfYPzWmktXoz-183">
          <mxGeometry x="710" y="460" width="80" height="80" as="geometry" />
        </mxCell>
        <mxCell id="mJbxCkgHBfYPzWmktXoz-306" value="" style="edgeStyle=orthogonalEdgeStyle;rounded=0;sketch=0;jumpStyle=none;orthogonalLoop=1;jettySize=auto;html=1;fontSize=35;strokeColor=#000000;strokeWidth=3;" edge="1" parent="1" source="mJbxCkgHBfYPzWmktXoz-210" target="mJbxCkgHBfYPzWmktXoz-305">
          <mxGeometry relative="1" as="geometry" />
        </mxCell>
        <mxCell id="mJbxCkgHBfYPzWmktXoz-210" value="4" style="ellipse;whiteSpace=wrap;html=1;aspect=fixed;fontSize=35;fontStyle=0" vertex="1" parent="1">
          <mxGeometry x="-1590" y="870" width="80" height="80" as="geometry" />
        </mxCell>
        <mxCell id="mJbxCkgHBfYPzWmktXoz-308" value="" style="edgeStyle=orthogonalEdgeStyle;rounded=0;sketch=0;jumpStyle=none;orthogonalLoop=1;jettySize=auto;html=1;fontSize=35;strokeColor=#000000;strokeWidth=3;" edge="1" parent="1" source="mJbxCkgHBfYPzWmktXoz-212" target="mJbxCkgHBfYPzWmktXoz-307">
          <mxGeometry relative="1" as="geometry" />
        </mxCell>
        <mxCell id="mJbxCkgHBfYPzWmktXoz-212" value="3" style="ellipse;whiteSpace=wrap;html=1;aspect=fixed;fontSize=35;fontStyle=0" vertex="1" parent="1">
          <mxGeometry x="-1430" y="870" width="80" height="80" as="geometry" />
        </mxCell>
        <mxCell id="mJbxCkgHBfYPzWmktXoz-310" value="" style="edgeStyle=orthogonalEdgeStyle;rounded=0;sketch=0;jumpStyle=none;orthogonalLoop=1;jettySize=auto;html=1;fontSize=35;strokeColor=#000000;strokeWidth=3;" edge="1" parent="1" source="mJbxCkgHBfYPzWmktXoz-214" target="mJbxCkgHBfYPzWmktXoz-309">
          <mxGeometry relative="1" as="geometry" />
        </mxCell>
        <mxCell id="mJbxCkgHBfYPzWmktXoz-214" value="4" style="ellipse;whiteSpace=wrap;html=1;aspect=fixed;fontSize=35;fontStyle=0" vertex="1" parent="1">
          <mxGeometry x="-1320" y="870" width="80" height="80" as="geometry" />
        </mxCell>
        <mxCell id="mJbxCkgHBfYPzWmktXoz-312" value="" style="edgeStyle=orthogonalEdgeStyle;rounded=0;sketch=0;jumpStyle=none;orthogonalLoop=1;jettySize=auto;html=1;fontSize=35;strokeColor=#000000;strokeWidth=3;" edge="1" parent="1" source="mJbxCkgHBfYPzWmktXoz-216" target="mJbxCkgHBfYPzWmktXoz-311">
          <mxGeometry relative="1" as="geometry" />
        </mxCell>
        <mxCell id="mJbxCkgHBfYPzWmktXoz-216" value="2" style="ellipse;whiteSpace=wrap;html=1;aspect=fixed;fontSize=35;fontStyle=0" vertex="1" parent="1">
          <mxGeometry x="-1160" y="870" width="80" height="80" as="geometry" />
        </mxCell>
        <mxCell id="mJbxCkgHBfYPzWmktXoz-314" value="" style="edgeStyle=orthogonalEdgeStyle;rounded=0;sketch=0;jumpStyle=none;orthogonalLoop=1;jettySize=auto;html=1;fontSize=35;strokeColor=#000000;strokeWidth=3;" edge="1" parent="1" source="mJbxCkgHBfYPzWmktXoz-218" target="mJbxCkgHBfYPzWmktXoz-313">
          <mxGeometry relative="1" as="geometry" />
        </mxCell>
        <mxCell id="mJbxCkgHBfYPzWmktXoz-218" value="2" style="ellipse;whiteSpace=wrap;html=1;aspect=fixed;fontSize=35;fontStyle=0" vertex="1" parent="1">
          <mxGeometry x="-1040" y="870" width="80" height="80" as="geometry" />
        </mxCell>
        <mxCell id="mJbxCkgHBfYPzWmktXoz-316" value="" style="edgeStyle=orthogonalEdgeStyle;rounded=0;sketch=0;jumpStyle=none;orthogonalLoop=1;jettySize=auto;html=1;fontSize=35;strokeColor=#000000;strokeWidth=3;" edge="1" parent="1" source="mJbxCkgHBfYPzWmktXoz-220" target="mJbxCkgHBfYPzWmktXoz-315">
          <mxGeometry relative="1" as="geometry" />
        </mxCell>
        <mxCell id="mJbxCkgHBfYPzWmktXoz-220" value="3" style="ellipse;whiteSpace=wrap;html=1;aspect=fixed;fontSize=35;fontStyle=0" vertex="1" parent="1">
          <mxGeometry x="-880" y="870" width="80" height="80" as="geometry" />
        </mxCell>
        <mxCell id="mJbxCkgHBfYPzWmktXoz-318" value="" style="edgeStyle=orthogonalEdgeStyle;rounded=0;sketch=0;jumpStyle=none;orthogonalLoop=1;jettySize=auto;html=1;fontSize=35;strokeColor=#000000;strokeWidth=3;" edge="1" parent="1" source="mJbxCkgHBfYPzWmktXoz-222" target="mJbxCkgHBfYPzWmktXoz-317">
          <mxGeometry relative="1" as="geometry" />
        </mxCell>
        <mxCell id="mJbxCkgHBfYPzWmktXoz-222" value="4" style="ellipse;whiteSpace=wrap;html=1;aspect=fixed;fontSize=35;fontStyle=0" vertex="1" parent="1">
          <mxGeometry x="-560" y="870" width="80" height="80" as="geometry" />
        </mxCell>
        <mxCell id="mJbxCkgHBfYPzWmktXoz-320" value="" style="edgeStyle=orthogonalEdgeStyle;rounded=0;sketch=0;jumpStyle=none;orthogonalLoop=1;jettySize=auto;html=1;fontSize=35;strokeColor=#000000;strokeWidth=3;" edge="1" parent="1" source="mJbxCkgHBfYPzWmktXoz-224" target="mJbxCkgHBfYPzWmktXoz-319">
          <mxGeometry relative="1" as="geometry" />
        </mxCell>
        <mxCell id="mJbxCkgHBfYPzWmktXoz-224" value="3" style="ellipse;whiteSpace=wrap;html=1;aspect=fixed;fontSize=35;fontStyle=0" vertex="1" parent="1">
          <mxGeometry x="-400" y="870" width="80" height="80" as="geometry" />
        </mxCell>
        <mxCell id="mJbxCkgHBfYPzWmktXoz-322" value="" style="edgeStyle=orthogonalEdgeStyle;rounded=0;sketch=0;jumpStyle=none;orthogonalLoop=1;jettySize=auto;html=1;fontSize=35;strokeColor=#000000;strokeWidth=3;" edge="1" parent="1" source="mJbxCkgHBfYPzWmktXoz-226" target="mJbxCkgHBfYPzWmktXoz-321">
          <mxGeometry relative="1" as="geometry" />
        </mxCell>
        <mxCell id="mJbxCkgHBfYPzWmktXoz-226" value="4" style="ellipse;whiteSpace=wrap;html=1;aspect=fixed;fontSize=35;fontStyle=0" vertex="1" parent="1">
          <mxGeometry x="-290" y="870" width="80" height="80" as="geometry" />
        </mxCell>
        <mxCell id="mJbxCkgHBfYPzWmktXoz-324" value="" style="edgeStyle=orthogonalEdgeStyle;rounded=0;sketch=0;jumpStyle=none;orthogonalLoop=1;jettySize=auto;html=1;fontSize=35;strokeColor=#000000;strokeWidth=3;" edge="1" parent="1" source="mJbxCkgHBfYPzWmktXoz-228" target="mJbxCkgHBfYPzWmktXoz-323">
          <mxGeometry relative="1" as="geometry" />
        </mxCell>
        <mxCell id="mJbxCkgHBfYPzWmktXoz-228" value="1" style="ellipse;whiteSpace=wrap;html=1;aspect=fixed;fontSize=35;fontStyle=0" vertex="1" parent="1">
          <mxGeometry x="-130" y="870" width="80" height="80" as="geometry" />
        </mxCell>
        <mxCell id="mJbxCkgHBfYPzWmktXoz-326" value="" style="edgeStyle=orthogonalEdgeStyle;rounded=0;sketch=0;jumpStyle=none;orthogonalLoop=1;jettySize=auto;html=1;fontSize=35;strokeColor=#000000;strokeWidth=3;" edge="1" parent="1" source="mJbxCkgHBfYPzWmktXoz-230" target="mJbxCkgHBfYPzWmktXoz-325">
          <mxGeometry relative="1" as="geometry" />
        </mxCell>
        <mxCell id="mJbxCkgHBfYPzWmktXoz-230" value="3" style="ellipse;whiteSpace=wrap;html=1;aspect=fixed;fontSize=35;fontStyle=0" vertex="1" parent="1">
          <mxGeometry x="-10" y="870" width="80" height="80" as="geometry" />
        </mxCell>
        <mxCell id="mJbxCkgHBfYPzWmktXoz-328" value="" style="edgeStyle=orthogonalEdgeStyle;rounded=0;sketch=0;jumpStyle=none;orthogonalLoop=1;jettySize=auto;html=1;fontSize=35;strokeColor=#000000;strokeWidth=3;" edge="1" parent="1" source="mJbxCkgHBfYPzWmktXoz-232" target="mJbxCkgHBfYPzWmktXoz-327">
          <mxGeometry relative="1" as="geometry" />
        </mxCell>
        <mxCell id="mJbxCkgHBfYPzWmktXoz-232" value="1" style="ellipse;whiteSpace=wrap;html=1;aspect=fixed;fontSize=35;fontStyle=0" vertex="1" parent="1">
          <mxGeometry x="150" y="870" width="80" height="80" as="geometry" />
        </mxCell>
        <mxCell id="mJbxCkgHBfYPzWmktXoz-330" value="" style="edgeStyle=orthogonalEdgeStyle;rounded=0;sketch=0;jumpStyle=none;orthogonalLoop=1;jettySize=auto;html=1;fontSize=35;strokeColor=#000000;strokeWidth=3;" edge="1" parent="1" source="mJbxCkgHBfYPzWmktXoz-234" target="mJbxCkgHBfYPzWmktXoz-329">
          <mxGeometry relative="1" as="geometry" />
        </mxCell>
        <mxCell id="mJbxCkgHBfYPzWmktXoz-234" value="4" style="ellipse;whiteSpace=wrap;html=1;aspect=fixed;fontSize=35;fontStyle=0" vertex="1" parent="1">
          <mxGeometry x="520" y="870" width="80" height="80" as="geometry" />
        </mxCell>
        <mxCell id="mJbxCkgHBfYPzWmktXoz-332" value="" style="edgeStyle=orthogonalEdgeStyle;rounded=0;sketch=0;jumpStyle=none;orthogonalLoop=1;jettySize=auto;html=1;fontSize=35;strokeColor=#000000;strokeWidth=3;" edge="1" parent="1" source="mJbxCkgHBfYPzWmktXoz-236" target="mJbxCkgHBfYPzWmktXoz-331">
          <mxGeometry relative="1" as="geometry" />
        </mxCell>
        <mxCell id="mJbxCkgHBfYPzWmktXoz-236" value="2" style="ellipse;whiteSpace=wrap;html=1;aspect=fixed;fontSize=35;fontStyle=0" vertex="1" parent="1">
          <mxGeometry x="680" y="870" width="80" height="80" as="geometry" />
        </mxCell>
        <mxCell id="mJbxCkgHBfYPzWmktXoz-334" value="" style="edgeStyle=orthogonalEdgeStyle;rounded=0;sketch=0;jumpStyle=none;orthogonalLoop=1;jettySize=auto;html=1;fontSize=35;strokeColor=#000000;strokeWidth=3;" edge="1" parent="1" source="mJbxCkgHBfYPzWmktXoz-238" target="mJbxCkgHBfYPzWmktXoz-333">
          <mxGeometry relative="1" as="geometry" />
        </mxCell>
        <mxCell id="mJbxCkgHBfYPzWmktXoz-238" value="4" style="ellipse;whiteSpace=wrap;html=1;aspect=fixed;fontSize=35;fontStyle=0" vertex="1" parent="1">
          <mxGeometry x="790" y="870" width="80" height="80" as="geometry" />
        </mxCell>
        <mxCell id="mJbxCkgHBfYPzWmktXoz-336" value="" style="edgeStyle=orthogonalEdgeStyle;rounded=0;sketch=0;jumpStyle=none;orthogonalLoop=1;jettySize=auto;html=1;fontSize=35;strokeColor=#000000;strokeWidth=3;" edge="1" parent="1" source="mJbxCkgHBfYPzWmktXoz-240" target="mJbxCkgHBfYPzWmktXoz-335">
          <mxGeometry relative="1" as="geometry" />
        </mxCell>
        <mxCell id="mJbxCkgHBfYPzWmktXoz-240" value="1" style="ellipse;whiteSpace=wrap;html=1;aspect=fixed;fontSize=35;fontStyle=0" vertex="1" parent="1">
          <mxGeometry x="950" y="870" width="80" height="80" as="geometry" />
        </mxCell>
        <mxCell id="mJbxCkgHBfYPzWmktXoz-338" value="" style="edgeStyle=orthogonalEdgeStyle;rounded=0;sketch=0;jumpStyle=none;orthogonalLoop=1;jettySize=auto;html=1;fontSize=35;strokeColor=#000000;strokeWidth=3;" edge="1" parent="1" source="mJbxCkgHBfYPzWmktXoz-242" target="mJbxCkgHBfYPzWmktXoz-337">
          <mxGeometry relative="1" as="geometry" />
        </mxCell>
        <mxCell id="mJbxCkgHBfYPzWmktXoz-242" value="3" style="ellipse;whiteSpace=wrap;html=1;aspect=fixed;fontSize=35;fontStyle=0" vertex="1" parent="1">
          <mxGeometry x="1070" y="870" width="80" height="80" as="geometry" />
        </mxCell>
        <mxCell id="mJbxCkgHBfYPzWmktXoz-340" value="" style="edgeStyle=orthogonalEdgeStyle;rounded=0;sketch=0;jumpStyle=none;orthogonalLoop=1;jettySize=auto;html=1;fontSize=35;strokeColor=#000000;strokeWidth=3;" edge="1" parent="1" source="mJbxCkgHBfYPzWmktXoz-244" target="mJbxCkgHBfYPzWmktXoz-339">
          <mxGeometry relative="1" as="geometry" />
        </mxCell>
        <mxCell id="mJbxCkgHBfYPzWmktXoz-244" value="1" style="ellipse;whiteSpace=wrap;html=1;aspect=fixed;fontSize=35;fontStyle=0" vertex="1" parent="1">
          <mxGeometry x="1230" y="870" width="80" height="80" as="geometry" />
        </mxCell>
        <mxCell id="mJbxCkgHBfYPzWmktXoz-342" value="" style="edgeStyle=orthogonalEdgeStyle;rounded=0;sketch=0;jumpStyle=none;orthogonalLoop=1;jettySize=auto;html=1;fontSize=35;strokeColor=#000000;strokeWidth=3;" edge="1" parent="1" source="mJbxCkgHBfYPzWmktXoz-246" target="mJbxCkgHBfYPzWmktXoz-341">
          <mxGeometry relative="1" as="geometry" />
        </mxCell>
        <mxCell id="mJbxCkgHBfYPzWmktXoz-246" value="3" style="ellipse;whiteSpace=wrap;html=1;aspect=fixed;fontSize=35;fontStyle=0" vertex="1" parent="1">
          <mxGeometry x="1500" y="870" width="80" height="80" as="geometry" />
        </mxCell>
        <mxCell id="mJbxCkgHBfYPzWmktXoz-344" value="" style="edgeStyle=orthogonalEdgeStyle;rounded=0;sketch=0;jumpStyle=none;orthogonalLoop=1;jettySize=auto;html=1;fontSize=35;strokeColor=#000000;strokeWidth=3;" edge="1" parent="1" source="mJbxCkgHBfYPzWmktXoz-248" target="mJbxCkgHBfYPzWmktXoz-343">
          <mxGeometry relative="1" as="geometry" />
        </mxCell>
        <mxCell id="mJbxCkgHBfYPzWmktXoz-248" value="2" style="ellipse;whiteSpace=wrap;html=1;aspect=fixed;fontSize=35;fontStyle=0" vertex="1" parent="1">
          <mxGeometry x="1660" y="870" width="80" height="80" as="geometry" />
        </mxCell>
        <mxCell id="mJbxCkgHBfYPzWmktXoz-346" value="" style="edgeStyle=orthogonalEdgeStyle;rounded=0;sketch=0;jumpStyle=none;orthogonalLoop=1;jettySize=auto;html=1;fontSize=35;strokeColor=#000000;strokeWidth=3;" edge="1" parent="1" source="mJbxCkgHBfYPzWmktXoz-250" target="mJbxCkgHBfYPzWmktXoz-345">
          <mxGeometry relative="1" as="geometry" />
        </mxCell>
        <mxCell id="mJbxCkgHBfYPzWmktXoz-250" value="3" style="ellipse;whiteSpace=wrap;html=1;aspect=fixed;fontSize=35;fontStyle=0" vertex="1" parent="1">
          <mxGeometry x="1770" y="870" width="80" height="80" as="geometry" />
        </mxCell>
        <mxCell id="mJbxCkgHBfYPzWmktXoz-348" value="" style="edgeStyle=orthogonalEdgeStyle;rounded=0;sketch=0;jumpStyle=none;orthogonalLoop=1;jettySize=auto;html=1;fontSize=35;strokeColor=#000000;strokeWidth=3;" edge="1" parent="1" source="mJbxCkgHBfYPzWmktXoz-252" target="mJbxCkgHBfYPzWmktXoz-347">
          <mxGeometry relative="1" as="geometry" />
        </mxCell>
        <mxCell id="mJbxCkgHBfYPzWmktXoz-252" value="1" style="ellipse;whiteSpace=wrap;html=1;aspect=fixed;fontSize=35;fontStyle=0" vertex="1" parent="1">
          <mxGeometry x="1930" y="870" width="80" height="80" as="geometry" />
        </mxCell>
        <mxCell id="mJbxCkgHBfYPzWmktXoz-350" value="" style="edgeStyle=orthogonalEdgeStyle;rounded=0;sketch=0;jumpStyle=none;orthogonalLoop=1;jettySize=auto;html=1;fontSize=35;strokeColor=#000000;strokeWidth=3;" edge="1" parent="1" source="mJbxCkgHBfYPzWmktXoz-254" target="mJbxCkgHBfYPzWmktXoz-349">
          <mxGeometry relative="1" as="geometry" />
        </mxCell>
        <mxCell id="mJbxCkgHBfYPzWmktXoz-254" value="2" style="ellipse;whiteSpace=wrap;html=1;aspect=fixed;fontSize=35;fontStyle=0" vertex="1" parent="1">
          <mxGeometry x="2050" y="870" width="80" height="80" as="geometry" />
        </mxCell>
        <mxCell id="mJbxCkgHBfYPzWmktXoz-352" value="" style="edgeStyle=orthogonalEdgeStyle;rounded=0;sketch=0;jumpStyle=none;orthogonalLoop=1;jettySize=auto;html=1;fontSize=35;strokeColor=#000000;strokeWidth=3;" edge="1" parent="1" source="mJbxCkgHBfYPzWmktXoz-256" target="mJbxCkgHBfYPzWmktXoz-351">
          <mxGeometry relative="1" as="geometry" />
        </mxCell>
        <mxCell id="mJbxCkgHBfYPzWmktXoz-256" value="1" style="ellipse;whiteSpace=wrap;html=1;aspect=fixed;fontSize=35;fontStyle=0" vertex="1" parent="1">
          <mxGeometry x="2210" y="870" width="80" height="80" as="geometry" />
        </mxCell>
        <mxCell id="mJbxCkgHBfYPzWmktXoz-295" value="Row 1" style="text;html=1;strokeColor=none;fillColor=none;align=center;verticalAlign=middle;whiteSpace=wrap;rounded=0;fontSize=35;opacity=0;" vertex="1" parent="1">
          <mxGeometry x="-2298" y="280" width="220" height="20" as="geometry" />
        </mxCell>
        <mxCell id="mJbxCkgHBfYPzWmktXoz-296" value="Row 2" style="text;html=1;strokeColor=none;fillColor=none;align=center;verticalAlign=middle;whiteSpace=wrap;rounded=0;fontSize=35;opacity=0;" vertex="1" parent="1">
          <mxGeometry x="-2298" y="550" width="220" height="20" as="geometry" />
        </mxCell>
        <mxCell id="mJbxCkgHBfYPzWmktXoz-297" value="Row 3" style="text;html=1;strokeColor=none;fillColor=none;align=center;verticalAlign=middle;whiteSpace=wrap;rounded=0;fontSize=35;opacity=0;" vertex="1" parent="1">
          <mxGeometry x="-2298" y="740" width="220" height="20" as="geometry" />
        </mxCell>
        <mxCell id="mJbxCkgHBfYPzWmktXoz-298" value="Row 4" style="text;html=1;strokeColor=none;fillColor=none;align=center;verticalAlign=middle;whiteSpace=wrap;rounded=0;fontSize=35;opacity=0;" vertex="1" parent="1">
          <mxGeometry x="-2298" y="900" width="220" height="20" as="geometry" />
        </mxCell>
        <mxCell id="mJbxCkgHBfYPzWmktXoz-305" value="" style="ellipse;whiteSpace=wrap;html=1;aspect=fixed;fontSize=35;fontStyle=0" vertex="1" parent="1">
          <mxGeometry x="-1590" y="1030" width="80" height="80" as="geometry" />
        </mxCell>
        <mxCell id="mJbxCkgHBfYPzWmktXoz-307" value="" style="ellipse;whiteSpace=wrap;html=1;aspect=fixed;fontSize=35;fontStyle=0" vertex="1" parent="1">
          <mxGeometry x="-1430" y="1030" width="80" height="80" as="geometry" />
        </mxCell>
        <mxCell id="mJbxCkgHBfYPzWmktXoz-309" value="" style="ellipse;whiteSpace=wrap;html=1;aspect=fixed;fontSize=35;fontStyle=0" vertex="1" parent="1">
          <mxGeometry x="-1320" y="1030" width="80" height="80" as="geometry" />
        </mxCell>
        <mxCell id="mJbxCkgHBfYPzWmktXoz-311" value="" style="ellipse;whiteSpace=wrap;html=1;aspect=fixed;fontSize=35;fontStyle=0" vertex="1" parent="1">
          <mxGeometry x="-1160" y="1030" width="80" height="80" as="geometry" />
        </mxCell>
        <mxCell id="mJbxCkgHBfYPzWmktXoz-313" value="" style="ellipse;whiteSpace=wrap;html=1;aspect=fixed;fontSize=35;fontStyle=0" vertex="1" parent="1">
          <mxGeometry x="-1040" y="1030" width="80" height="80" as="geometry" />
        </mxCell>
        <mxCell id="mJbxCkgHBfYPzWmktXoz-315" value="" style="ellipse;whiteSpace=wrap;html=1;aspect=fixed;fontSize=35;fontStyle=0" vertex="1" parent="1">
          <mxGeometry x="-880" y="1030" width="80" height="80" as="geometry" />
        </mxCell>
        <mxCell id="mJbxCkgHBfYPzWmktXoz-317" value="" style="ellipse;whiteSpace=wrap;html=1;aspect=fixed;fontSize=35;fontStyle=0" vertex="1" parent="1">
          <mxGeometry x="-560" y="1030" width="80" height="80" as="geometry" />
        </mxCell>
        <mxCell id="mJbxCkgHBfYPzWmktXoz-319" value="" style="ellipse;whiteSpace=wrap;html=1;aspect=fixed;fontSize=35;fontStyle=0" vertex="1" parent="1">
          <mxGeometry x="-400" y="1030" width="80" height="80" as="geometry" />
        </mxCell>
        <mxCell id="mJbxCkgHBfYPzWmktXoz-321" value="" style="ellipse;whiteSpace=wrap;html=1;aspect=fixed;fontSize=35;fontStyle=0" vertex="1" parent="1">
          <mxGeometry x="-290" y="1030" width="80" height="80" as="geometry" />
        </mxCell>
        <mxCell id="mJbxCkgHBfYPzWmktXoz-323" value="" style="ellipse;whiteSpace=wrap;html=1;aspect=fixed;fontSize=35;fontStyle=0" vertex="1" parent="1">
          <mxGeometry x="-130" y="1030" width="80" height="80" as="geometry" />
        </mxCell>
        <mxCell id="mJbxCkgHBfYPzWmktXoz-325" value="" style="ellipse;whiteSpace=wrap;html=1;aspect=fixed;fontSize=35;fontStyle=0" vertex="1" parent="1">
          <mxGeometry x="-10" y="1030" width="80" height="80" as="geometry" />
        </mxCell>
        <mxCell id="mJbxCkgHBfYPzWmktXoz-327" value="" style="ellipse;whiteSpace=wrap;html=1;aspect=fixed;fontSize=35;fontStyle=0" vertex="1" parent="1">
          <mxGeometry x="150" y="1030" width="80" height="80" as="geometry" />
        </mxCell>
        <mxCell id="mJbxCkgHBfYPzWmktXoz-329" value="" style="ellipse;whiteSpace=wrap;html=1;aspect=fixed;fontSize=35;fontStyle=0" vertex="1" parent="1">
          <mxGeometry x="520" y="1030" width="80" height="80" as="geometry" />
        </mxCell>
        <mxCell id="mJbxCkgHBfYPzWmktXoz-331" value="" style="ellipse;whiteSpace=wrap;html=1;aspect=fixed;fontSize=35;fontStyle=0" vertex="1" parent="1">
          <mxGeometry x="680" y="1030" width="80" height="80" as="geometry" />
        </mxCell>
        <mxCell id="mJbxCkgHBfYPzWmktXoz-333" value="" style="ellipse;whiteSpace=wrap;html=1;aspect=fixed;fontSize=35;fontStyle=0" vertex="1" parent="1">
          <mxGeometry x="790" y="1030" width="80" height="80" as="geometry" />
        </mxCell>
        <mxCell id="mJbxCkgHBfYPzWmktXoz-335" value="" style="ellipse;whiteSpace=wrap;html=1;aspect=fixed;fontSize=35;fontStyle=0" vertex="1" parent="1">
          <mxGeometry x="950" y="1030" width="80" height="80" as="geometry" />
        </mxCell>
        <mxCell id="mJbxCkgHBfYPzWmktXoz-337" value="" style="ellipse;whiteSpace=wrap;html=1;aspect=fixed;fontSize=35;fontStyle=0" vertex="1" parent="1">
          <mxGeometry x="1070" y="1030" width="80" height="80" as="geometry" />
        </mxCell>
        <mxCell id="mJbxCkgHBfYPzWmktXoz-339" value="" style="ellipse;whiteSpace=wrap;html=1;aspect=fixed;fontSize=35;fontStyle=0" vertex="1" parent="1">
          <mxGeometry x="1230" y="1030" width="80" height="80" as="geometry" />
        </mxCell>
        <mxCell id="mJbxCkgHBfYPzWmktXoz-341" value="" style="ellipse;whiteSpace=wrap;html=1;aspect=fixed;fontSize=35;fontStyle=0" vertex="1" parent="1">
          <mxGeometry x="1500" y="1030" width="80" height="80" as="geometry" />
        </mxCell>
        <mxCell id="mJbxCkgHBfYPzWmktXoz-343" value="" style="ellipse;whiteSpace=wrap;html=1;aspect=fixed;fontSize=35;fontStyle=0" vertex="1" parent="1">
          <mxGeometry x="1660" y="1030" width="80" height="80" as="geometry" />
        </mxCell>
        <mxCell id="mJbxCkgHBfYPzWmktXoz-345" value="" style="ellipse;whiteSpace=wrap;html=1;aspect=fixed;fontSize=35;fontStyle=0" vertex="1" parent="1">
          <mxGeometry x="1770" y="1030" width="80" height="80" as="geometry" />
        </mxCell>
        <mxCell id="mJbxCkgHBfYPzWmktXoz-347" value="" style="ellipse;whiteSpace=wrap;html=1;aspect=fixed;fontSize=35;fontStyle=0" vertex="1" parent="1">
          <mxGeometry x="1930" y="1030" width="80" height="80" as="geometry" />
        </mxCell>
        <mxCell id="mJbxCkgHBfYPzWmktXoz-349" value="" style="ellipse;whiteSpace=wrap;html=1;aspect=fixed;fontSize=35;fontStyle=0" vertex="1" parent="1">
          <mxGeometry x="2050" y="1030" width="80" height="80" as="geometry" />
        </mxCell>
        <mxCell id="mJbxCkgHBfYPzWmktXoz-351" value="" style="ellipse;whiteSpace=wrap;html=1;aspect=fixed;fontSize=35;fontStyle=0" vertex="1" parent="1">
          <mxGeometry x="2210" y="1030" width="80" height="80" as="geometry" />
        </mxCell>
      </root>
    </mxGraphModel>
  </diagram>
</mxfile>
